<svg width="20" height="20" viewBox="0 0 20 20" fill="none" xmlns="http://www.w3.org/2000/svg">
<path d="M17.5 10C17.5 5.85938 14.1406 2.5 10 2.5C5.85938 2.5 2.5 5.85938 2.5 10C2.5 14.1406 5.85938 17.5 10 17.5C14.1406 17.5 17.5 14.1406 17.5 10Z" stroke="black" stroke-opacity="0.49" stroke-width="2" stroke-miterlimit="10"/>
<path d="M8.45001 13.0641L12.9207 10.3633C12.983 10.3253 13.0345 10.272 13.0703 10.2084C13.106 10.1447 13.1248 10.073 13.1248 10C13.1248 9.92706 13.106 9.85531 13.0703 9.79169C13.0345 9.72807 12.983 9.67471 12.9207 9.63675L8.45001 6.93597C8.38593 6.89757 8.31278 6.87692 8.23809 6.87612C8.16339 6.87533 8.08982 6.89441 8.02494 6.93143C7.96005 6.96844 7.90618 7.02205 7.86885 7.08676C7.83152 7.15147 7.81207 7.22494 7.81251 7.29964V12.7004C7.81207 12.7751 7.83152 12.8486 7.86885 12.9133C7.90618 12.978 7.96005 13.0316 8.02494 13.0686C8.08982 13.1056 8.16339 13.1247 8.23809 13.1239C8.31278 13.1231 8.38593 13.1025 8.45001 13.0641Z" fill="black" fill-opacity="0.49"/>
</svg>
