<svg width="50" height="50" viewBox="0 0 50 50" fill="none" xmlns="http://www.w3.org/2000/svg">
<path d="M40.625 7.8125H9.375C6.78617 7.8125 4.6875 9.91117 4.6875 12.5V40.625C4.6875 43.2138 6.78617 45.3125 9.375 45.3125H40.625C43.2138 45.3125 45.3125 43.2138 45.3125 40.625V12.5C45.3125 9.91117 43.2138 7.8125 40.625 7.8125Z" stroke="white" stroke-width="2" stroke-linejoin="round"/>
<path d="M28.9062 25C30.2007 25 31.25 23.9507 31.25 22.6562C31.25 21.3618 30.2007 20.3125 28.9062 20.3125C27.6118 20.3125 26.5625 21.3618 26.5625 22.6562C26.5625 23.9507 27.6118 25 28.9062 25Z" fill="white"/>
<path d="M36.7188 25C38.0132 25 39.0625 23.9507 39.0625 22.6562C39.0625 21.3618 38.0132 20.3125 36.7188 20.3125C35.4243 20.3125 34.375 21.3618 34.375 22.6562C34.375 23.9507 35.4243 25 36.7188 25Z" fill="white"/>
<path d="M28.9062 32.8125C30.2007 32.8125 31.25 31.7632 31.25 30.4688C31.25 29.1743 30.2007 28.125 28.9062 28.125C27.6118 28.125 26.5625 29.1743 26.5625 30.4688C26.5625 31.7632 27.6118 32.8125 28.9062 32.8125Z" fill="white"/>
<path d="M36.7188 32.8125C38.0132 32.8125 39.0625 31.7632 39.0625 30.4688C39.0625 29.1743 38.0132 28.125 36.7188 28.125C35.4243 28.125 34.375 29.1743 34.375 30.4688C34.375 31.7632 35.4243 32.8125 36.7188 32.8125Z" fill="white"/>
<path d="M13.2812 32.8125C14.5757 32.8125 15.625 31.7632 15.625 30.4688C15.625 29.1743 14.5757 28.125 13.2812 28.125C11.9868 28.125 10.9375 29.1743 10.9375 30.4688C10.9375 31.7632 11.9868 32.8125 13.2812 32.8125Z" fill="white"/>
<path d="M21.0938 32.8125C22.3882 32.8125 23.4375 31.7632 23.4375 30.4688C23.4375 29.1743 22.3882 28.125 21.0938 28.125C19.7993 28.125 18.75 29.1743 18.75 30.4688C18.75 31.7632 19.7993 32.8125 21.0938 32.8125Z" fill="white"/>
<path d="M13.2812 40.625C14.5757 40.625 15.625 39.5757 15.625 38.2812C15.625 36.9868 14.5757 35.9375 13.2812 35.9375C11.9868 35.9375 10.9375 36.9868 10.9375 38.2812C10.9375 39.5757 11.9868 40.625 13.2812 40.625Z" fill="white"/>
<path d="M21.0938 40.625C22.3882 40.625 23.4375 39.5757 23.4375 38.2812C23.4375 36.9868 22.3882 35.9375 21.0938 35.9375C19.7993 35.9375 18.75 36.9868 18.75 38.2812C18.75 39.5757 19.7993 40.625 21.0938 40.625Z" fill="white"/>
<path d="M28.9062 40.625C30.2007 40.625 31.25 39.5757 31.25 38.2812C31.25 36.9868 30.2007 35.9375 28.9062 35.9375C27.6118 35.9375 26.5625 36.9868 26.5625 38.2812C26.5625 39.5757 27.6118 40.625 28.9062 40.625Z" fill="white"/>
<path d="M12.5 4.6875V7.8125M37.5 4.6875V7.8125" stroke="white" stroke-linecap="round" stroke-linejoin="round"/>
<path d="M45.3125 15.625H4.6875" stroke="white" stroke-linejoin="round"/>
</svg>
