<svg width="25" height="27" viewBox="0 0 25 27" fill="none" xmlns="http://www.w3.org/2000/svg">
<path d="M17.0473 7.21729C15.0786 7.21729 14.2465 8.23189 12.8754 8.23189C11.4697 8.23189 10.3974 7.22467 8.69135 7.22467C7.02143 7.22467 5.24067 8.32576 4.10981 10.2015C2.52192 12.8467 2.79145 17.8285 5.36323 22.0726C6.28315 23.5918 7.51167 25.2957 9.12299 25.3141H9.15229C10.5527 25.3141 10.9687 24.3238 12.8959 24.3122H12.9252C14.8237 24.3122 15.2045 25.3083 16.5991 25.3083H16.6284C18.2397 25.2899 19.5341 23.402 20.454 21.8885C21.1162 20.8001 21.3623 20.2537 21.8701 19.0224C18.1498 17.4973 17.5522 11.8015 21.2314 9.61775C20.1083 8.099 18.5302 7.21939 17.0424 7.21939L17.0473 7.21729Z" fill="white"/>
<path d="M16.6137 1.6875C15.4418 1.77346 14.0746 2.57924 13.2738 3.63129C12.5473 4.58473 11.9496 5.99906 12.184 7.37068H12.2778C13.5258 7.37068 14.8031 6.5591 15.5492 5.51918C16.268 4.52936 16.8129 3.12662 16.6137 1.6875Z" fill="white"/>
</svg>
