<svg width="50" height="50" viewBox="0 0 50 50" fill="none" xmlns="http://www.w3.org/2000/svg">
<path d="M25 4.6875C13.7998 4.6875 4.6875 13.7998 4.6875 25C4.6875 36.2002 13.7998 45.3125 25 45.3125C36.2002 45.3125 45.3125 36.2002 45.3125 25C45.3125 13.7998 36.2002 4.6875 25 4.6875ZM32.3018 25.9082L21.125 32.6602C20.9648 32.7561 20.7819 32.8078 20.5952 32.8098C20.4085 32.8118 20.2245 32.764 20.0623 32.6715C19.9001 32.579 19.7654 32.4449 19.6721 32.2832C19.5788 32.1214 19.5302 31.9377 19.5312 31.751V18.249C19.5302 18.0623 19.5788 17.8786 19.6721 17.7168C19.7654 17.5551 19.9001 17.421 20.0623 17.3285C20.2245 17.236 20.4085 17.1882 20.5952 17.1902C20.7819 17.1922 20.9648 17.2439 21.125 17.3398L32.3018 24.0918C32.4576 24.1867 32.5863 24.3201 32.6757 24.4792C32.765 24.6382 32.8119 24.8176 32.8119 25C32.8119 25.1824 32.765 25.3618 32.6757 25.5208C32.5863 25.6799 32.4576 25.8133 32.3018 25.9082Z" fill="white"/>
</svg>
