<svg width="50" height="50" viewBox="0 0 50 50" fill="none" xmlns="http://www.w3.org/2000/svg">
<path d="M45.3486 4.80469C45.1525 4.58972 44.9149 4.4167 44.6501 4.29605C44.3853 4.1754 44.0988 4.10963 43.8078 4.10269C43.5169 4.09576 43.2276 4.14781 42.9574 4.2557C42.6871 4.36359 42.4415 4.52509 42.2354 4.73047L40.4473 6.5127L43.4922 9.5498L45.25 7.80078C45.65 7.41071 45.8837 6.88102 45.9021 6.32258C45.9205 5.76414 45.7222 5.22023 45.3486 4.80469ZM24.6836 32.8125H17.1875V25.3164L18.1055 24.4004L31.5957 10.9375H4.6875V45.3125H39.0625V18.4043L25.5996 31.8945L24.6836 32.8125ZM39.0625 13.9805L42.2646 10.7715L39.2285 7.73535L36.0205 10.9375H39.0625V13.9805Z" fill="black"/>
<path d="M20.3125 29.6875H23.3877L39.0625 13.9805V10.9375H36.0205L20.3125 26.6123V29.6875Z" fill="black"/>
</svg>
