<svg width="25" height="25" viewBox="0 0 25 25" fill="none" xmlns="http://www.w3.org/2000/svg">
<path d="M20.3125 21.0938L3.125 3.90625" stroke="black" stroke-width="2" stroke-miterlimit="10" stroke-linecap="round"/>
<path d="M10.9375 6.68561V8.336C10.9376 8.38765 10.9581 8.43715 10.9946 8.47369L12.1665 9.64557C12.1938 9.67288 12.2286 9.6915 12.2664 9.69907C12.3043 9.70663 12.3435 9.7028 12.3792 9.68807C12.4149 9.67333 12.4454 9.64835 12.4669 9.61628C12.4884 9.58421 12.4999 9.54648 12.5 9.50787V5.88727C12.5022 5.67112 12.4458 5.45841 12.3369 5.2717C12.228 5.08498 12.0706 4.93122 11.8813 4.82672C11.6863 4.72175 11.4655 4.67442 11.2446 4.69024C11.0237 4.70606 10.8118 4.78439 10.6338 4.91608C10.6226 4.92383 10.6119 4.93214 10.6016 4.94098L9.04199 6.21783C9.02092 6.23513 9.00371 6.25665 8.99146 6.281C8.97921 6.30535 8.97219 6.332 8.97085 6.35923C8.96952 6.38646 8.9739 6.41366 8.98371 6.43909C8.99353 6.46453 9.00856 6.48762 9.02783 6.5069L9.86035 7.33991C9.89467 7.37422 9.94053 7.39453 9.989 7.39687C10.0375 7.39922 10.0851 7.38344 10.1226 7.3526L10.9375 6.68561ZM10.9375 18.3145L7.12549 15.1934C6.84563 14.9661 6.49578 14.8426 6.13525 14.8438H3.125V10.1563H5.60156C5.64017 10.1562 5.6779 10.1447 5.70997 10.1232C5.74204 10.1017 5.76702 10.0712 5.78176 10.0355C5.79649 9.99985 5.80032 9.96059 5.79276 9.92273C5.78519 9.88487 5.76657 9.8501 5.73926 9.82281L4.56738 8.65094C4.53084 8.61444 4.48133 8.5939 4.42969 8.59381H2.73438C2.42357 8.59381 2.1255 8.71728 1.90573 8.93705C1.68597 9.15681 1.5625 9.45489 1.5625 9.76569V15.2344C1.5625 15.5452 1.68597 15.8433 1.90573 16.0631C2.1255 16.2828 2.42357 16.4063 2.73438 16.4063H6.14062L10.6016 20.0587C10.6119 20.0675 10.6226 20.0758 10.6338 20.0836C10.8141 20.217 11.0289 20.2958 11.2528 20.3104C11.4766 20.325 11.6999 20.2749 11.896 20.1661C12.0814 20.0605 12.2352 19.9073 12.3414 19.7222C12.4476 19.5372 12.5023 19.3272 12.5 19.1138V16.6641C12.4999 16.6125 12.4794 16.563 12.4429 16.5264L11.271 15.3546C11.2437 15.3272 11.2089 15.3086 11.1711 15.3011C11.1332 15.2935 11.094 15.2973 11.0583 15.3121C11.0226 15.3268 10.9921 15.3518 10.9706 15.3838C10.9491 15.4159 10.9376 15.4536 10.9375 15.4922V18.3145ZM17.1875 12.5001C17.1875 11.3008 16.9038 10.1622 16.3208 9.02008C16.2245 8.83942 16.061 8.70381 15.8657 8.64241C15.6704 8.58102 15.4588 8.59875 15.2764 8.6918C15.094 8.78484 14.9555 8.94576 14.8905 9.13993C14.8256 9.3341 14.8395 9.546 14.9292 9.73004C15.3975 10.6475 15.625 11.5538 15.625 12.5001C15.625 12.6303 15.62 12.7626 15.6099 12.897C15.6057 12.9531 15.6137 13.0093 15.6332 13.062C15.6528 13.1146 15.6834 13.1625 15.7231 13.2022L16.6831 14.1627C16.708 14.1876 16.7391 14.2054 16.7732 14.2141C16.8074 14.2228 16.8432 14.2222 16.877 14.2122C16.9108 14.2021 16.9413 14.1832 16.9651 14.1573C16.989 14.1314 17.0055 14.0995 17.0127 14.065C17.1282 13.5514 17.1868 13.0265 17.1875 12.5001ZM20.3125 12.5001C20.3125 10.0005 19.6738 8.40387 18.6436 6.63776C18.5377 6.46168 18.3668 6.33436 18.1678 6.28336C17.9688 6.23237 17.7578 6.2618 17.5803 6.3653C17.4029 6.46879 17.2733 6.63801 17.2197 6.83632C17.1661 7.03463 17.1928 7.24607 17.2939 7.42487C18.2163 9.00592 18.75 10.3433 18.75 12.5001C18.75 13.6636 18.5894 14.5938 18.2925 15.4615C18.2686 15.5307 18.2647 15.6051 18.2811 15.6764C18.2975 15.7478 18.3336 15.813 18.3853 15.8648L19.2041 16.6832C19.2267 16.7059 19.2546 16.7227 19.2852 16.7321C19.3159 16.7415 19.3484 16.7432 19.3798 16.737C19.4113 16.7309 19.4407 16.7171 19.4656 16.6969C19.4905 16.6767 19.51 16.6507 19.5225 16.6212C20.0239 15.4239 20.3125 14.1558 20.3125 12.5001Z" fill="black"/>
<path d="M23.4376 12.5C23.4376 8.874 22.4518 6.5864 20.9713 4.26707C20.8598 4.09224 20.6834 3.96887 20.4809 3.92409C20.2785 3.87931 20.0665 3.9168 19.8917 4.0283C19.7169 4.1398 19.5935 4.31618 19.5487 4.51864C19.5039 4.7211 19.5414 4.93306 19.6529 5.10789C20.9874 7.19626 21.8751 9.25291 21.8751 12.5C21.8751 14.8169 21.4405 16.5097 20.7232 18.0176C20.7058 18.0539 20.7 18.0948 20.7068 18.1346C20.7135 18.1744 20.7324 18.2111 20.7608 18.2397L21.631 19.1108C21.6527 19.1327 21.6793 19.1491 21.7087 19.1588C21.738 19.1684 21.7692 19.1709 21.7997 19.1661C21.8302 19.1614 21.8591 19.1494 21.8841 19.1313C21.9091 19.1132 21.9294 19.0895 21.9435 19.062C22.9923 17.0029 23.4376 14.9902 23.4376 12.5Z" fill="black"/>
</svg>
