<svg width="33" height="33" viewBox="0 0 33 33" fill="none" xmlns="http://www.w3.org/2000/svg">
<g clip-path="url(#clip0_106_31)">
<path d="M22.3253 10.3956C21.5599 10.4961 21.0576 11.2356 21.2087 12.039L21.8752 16.3155L21.4229 16.5896L15.7808 7.27856C15.3528 6.5722 14.4689 6.31772 13.8167 6.71291C13.1641 7.10834 12.9809 8.00947 13.4089 8.71582L17.0994 14.8061L16.5123 15.1756L11.6484 7.14883C11.2204 6.44248 10.3364 6.18799 9.68426 6.58318C9.03209 6.97836 8.8485 7.87974 9.27652 8.58609L14.1343 16.6028L13.5484 16.9716L9.46276 10.2291C9.03474 9.52273 8.15076 9.26825 7.49859 9.66343C6.84601 10.0589 6.66283 10.96 7.09084 11.6663L11.5595 19.041L10.9716 19.4109L8.05329 14.5948C7.62527 13.8885 6.74129 13.634 6.08912 14.0292C5.43694 14.4244 5.25336 15.3257 5.68138 16.0321L10.9343 24.701C12.7777 27.7432 16.5101 30.5405 21.8026 27.3336C23.44 26.3414 24.8198 25.1212 25.3317 24.0428C25.6528 23.3665 25.8374 22.6336 25.875 21.8859C25.9034 21.3277 25.8595 20.7682 25.7443 20.2213L23.9914 11.6736C23.8423 10.8689 23.091 10.2954 22.3253 10.3956Z" fill="#FEDC66"/>
</g>
<defs>
<clipPath id="clip0_106_31">
<rect width="24" height="24" fill="white" transform="translate(0 12.4514) scale(1.00111) rotate(-31.2138)"/>
</clipPath>
</defs>
</svg>
