<svg width="30" height="30" viewBox="0 0 30 30" fill="none" xmlns="http://www.w3.org/2000/svg">
<path d="M15.1698 2.81247C8.31554 2.71989 2.71983 8.3156 2.81241 15.1699C2.90382 21.7435 8.25636 27.0961 14.83 27.1875C21.6855 27.2812 27.28 21.6855 27.1862 14.8312C27.096 8.25642 21.7435 2.90388 15.1698 2.81247ZM22.5773 21.9873C22.5539 22.0125 22.5253 22.0323 22.4935 22.0453C22.4616 22.0582 22.4273 22.064 22.393 22.0622C22.3586 22.0604 22.3251 22.0511 22.2948 22.0349C22.2645 22.0187 22.2381 21.9961 22.2175 21.9685C21.6934 21.2828 21.0516 20.6958 20.322 20.2347C18.8302 19.2773 16.94 18.75 14.9999 18.75C13.0599 18.75 11.1696 19.2773 9.67784 20.2347C8.94827 20.6956 8.30645 21.2824 7.78233 21.9679C7.76174 21.9955 7.73535 22.0181 7.70502 22.0343C7.67469 22.0505 7.64118 22.0598 7.60684 22.0616C7.57251 22.0634 7.53821 22.0576 7.50636 22.0447C7.47452 22.0317 7.44591 22.0119 7.42257 21.9867C5.70324 20.1307 4.7293 17.7054 4.68741 15.1758C4.5919 9.474 9.27062 4.70154 14.9747 4.68747C20.6788 4.67341 25.3124 9.30525 25.3124 15C25.3144 17.5906 24.3374 20.0864 22.5773 21.9873Z" fill="black"/>
<path d="M15.0001 8.4375C13.8446 8.4375 12.7999 8.87051 12.0575 9.65742C11.3151 10.4443 10.9442 11.5324 11.028 12.7002C11.1979 15 12.9798 16.875 15.0001 16.875C17.0204 16.875 18.7987 15 18.9721 12.7008C19.0589 11.5441 18.6909 10.466 17.9362 9.66445C17.1909 8.87344 16.1479 8.4375 15.0001 8.4375Z" fill="black"/>
</svg>
