<svg width="24" height="24" viewBox="0 0 24 24" fill="none" xmlns="http://www.w3.org/2000/svg">
<path d="M20.7 8.04415L12.5095 4.00165C12.3511 3.92348 12.1767 3.88281 12 3.88281C11.8233 3.88281 11.6489 3.92348 11.4905 4.00165L3.3 8.04415C2.986 8.198 2.72128 8.43659 2.53574 8.73296C2.3502 9.02933 2.25122 9.37168 2.25 9.72134V18.3749C2.25 19.4104 3.10031 20.2499 4.14937 20.2499H19.8525C20.9016 20.2499 21.7519 19.4104 21.7519 18.3749V9.72134C21.7505 9.37148 21.6512 9.029 21.4653 8.7326C21.2795 8.43621 21.0143 8.19774 20.7 8.04415Z" stroke="#E07F33" stroke-linecap="round" stroke-linejoin="round"/>
<path d="M18.6248 17.25L12.5657 12.5372C12.3682 12.3836 12.1252 12.3002 11.875 12.3002C11.6248 12.3002 11.3818 12.3836 11.1843 12.5372L5.12476 17.25M14.4998 13.8281L20.8748 9M2.87476 9L9.39038 13.9219" stroke="#E07F33" stroke-linecap="round" stroke-linejoin="round"/>
</svg>
